<?xml version="1.0" encoding="utf-8"?>
<!-- Generator: Adobe Illustrator 25.0.0, SVG Export Plug-In . SVG Version: 6.00 Build 0)  -->
<svg version="1.1" id="Warstwa_1" xmlns="http://www.w3.org/2000/svg" xmlns:xlink="http://www.w3.org/1999/xlink" x="0px" y="0px"
	 viewBox="0 0 407.7 414.9" style="enable-background:new 0 0 407.7 414.9;" xml:space="preserve">
<style type="text/css">
	.st0{display:none;}
	.st1{display:inline;fill:none;stroke:#000000;stroke-width:12;stroke-miterlimit:10;}
	.st2{display:inline;fill:#057CC1;stroke:#F8C300;stroke-width:6;stroke-miterlimit:10;}
	.st3{display:none;fill:#6DCAF3;}
	.st4{fill:none;stroke:#27348B;stroke-width:6;stroke-miterlimit:10;}
	.st5{enable-background:new    ;}
	.st6{clip-path:url(#SVGID_2_);enable-background:new    ;}
	.st7{fill:#AF8D04;}
	.st8{clip-path:url(#SVGID_4_);enable-background:new    ;}
	.st9{fill:#B28F04;}
	.st10{fill:#B59104;}
	.st11{fill:#B89404;}
	.st12{fill:#BB9603;}
	.st13{fill:#BE9803;}
	.st14{fill:#C19B03;}
	.st15{clip-path:url(#SVGID_6_);enable-background:new    ;}
	.st16{clip-path:url(#SVGID_8_);enable-background:new    ;}
	.st17{clip-path:url(#SVGID_10_);enable-background:new    ;}
	.st18{clip-path:url(#SVGID_12_);enable-background:new    ;}
	.st19{clip-path:url(#SVGID_14_);enable-background:new    ;}
	.st20{clip-path:url(#SVGID_16_);enable-background:new    ;}
	.st21{clip-path:url(#SVGID_18_);enable-background:new    ;}
	.st22{clip-path:url(#SVGID_20_);enable-background:new    ;}
	.st23{clip-path:url(#SVGID_22_);enable-background:new    ;}
	.st24{clip-path:url(#SVGID_24_);enable-background:new    ;}
	.st25{clip-path:url(#SVGID_26_);enable-background:new    ;}
	.st26{clip-path:url(#SVGID_28_);enable-background:new    ;}
	.st27{clip-path:url(#SVGID_30_);enable-background:new    ;}
	.st28{fill:#EEBC00;}
	.st29{clip-path:url(#SVGID_32_);enable-background:new    ;}
	.st30{clip-path:url(#SVGID_34_);enable-background:new    ;}
	.st31{clip-path:url(#SVGID_36_);enable-background:new    ;}
	.st32{clip-path:url(#SVGID_38_);enable-background:new    ;}
	.st33{clip-path:url(#SVGID_40_);enable-background:new    ;}
	.st34{fill:#C8A002;}
	.st35{clip-path:url(#SVGID_42_);enable-background:new    ;}
	.st36{clip-path:url(#SVGID_44_);enable-background:new    ;}
	.st37{clip-path:url(#SVGID_46_);enable-background:new    ;}
	.st38{clip-path:url(#SVGID_48_);enable-background:new    ;}
	.st39{clip-path:url(#SVGID_50_);enable-background:new    ;}
	.st40{clip-path:url(#SVGID_52_);enable-background:new    ;}
	.st41{clip-path:url(#SVGID_54_);enable-background:new    ;}
	.st42{display:none;opacity:0.15;}
</style>
<g id="Warstwa_1_1_" class="st0">
	<path class="st1" d="M339.6,33.7c-21-8.6-39.4-17.9-55.2-26.8c-9.2,5.1-22.9,11.4-40.5,15.1c-15.9,3.4-29.8,3.5-39.8,2.8
		c0,0,0,0,0,0c-0.1,0-0.1,0-0.1,0c-0.1,0-0.1,0-0.1,0c0,0,0,0,0,0c-10,0.7-23.9,0.6-39.8-2.8c-17.6-3.7-31.3-10-40.5-15.1
		c-15.8,9-34.2,18.2-55.2,26.8C45.7,42.9,24.6,49.5,6,54.3c0,106.1,0,212.1,0,318.2c18,0.3,41.7,2.5,68.5,9.6
		c26.6,7.1,47.9,16.9,63.6,25.4c5.4-4.9,13.9-11.5,25.9-16.5c16.6-6.9,31.4-7.3,39.8-6.9v0c0.1,0,0.1,0,0.1,0c0.1,0,0.1,0,0.1,0v0
		c8.4-0.4,23.3,0,39.8,6.9c11.9,5,20.5,11.6,25.8,16.5c15.6-8.6,37-18.4,63.6-25.4c26.8-7.1,50.5-9.3,68.5-9.6
		c0-106.1,0-212.1,0-318.2C383.1,49.5,362.1,42.9,339.6,33.7z"/>
	<path class="st2" d="M334.2,37.8c-20.2-8.4-37.9-17.4-53-26.2c-8.9,5-22,11.1-38.9,14.8c-15.3,3.3-28.6,3.4-38.3,2.7c0,0,0,0,0,0
		c0,0-0.1,0-0.1,0s-0.1,0-0.1,0c0,0,0,0,0,0c-9.6,0.7-22.9,0.6-38.3-2.7c-16.9-3.6-30.1-9.8-38.9-14.8c-15.2,8.8-32.9,17.8-53,26.2
		c-21.6,9-41.8,15.5-59.7,20.1c0,103.6,0,207.2,0,310.7c17.3,0.3,40,2.4,65.8,9.4c25.5,6.9,46,16.5,61.1,24.8
		c5.2-4.8,13.4-11.2,24.8-16.1c15.9-6.8,30.2-7.1,38.3-6.7v0c0,0,0.1,0,0.1,0c0,0,0.1,0,0.1,0v0c8.1-0.4,22.4,0,38.3,6.7
		c11.4,4.9,19.7,11.3,24.8,16.1c15-8.4,35.6-17.9,61.1-24.8c25.7-7,48.5-9.1,65.8-9.4c0-103.6,0-207.2,0-310.7
		C376,53.2,355.8,46.8,334.2,37.8z"/>
</g>
<g id="Warstwa_4">
	
		<image style="display:none;overflow:visible;opacity:0.25;enable-background:new    ;" width="1563" height="1450" xlink:href="ACCB0E55.png"  transform="matrix(0.2388 0 0 0.2388 13.2903 26.6272)">
	</image>
	<g>
		<g>
			<g>
				<g>
					<path class="st3" d="M205.1,44.5c48.7,1.7,97.9,25.3,129.4,62.9c1.1,1.4,32,53.3,33.7,83.4c4.9,89.4-78.1,162.3-163.1,164.4
						C109.5,357.6,20.8,270.1,32.6,178c3.9-30.7,18.6-58,39.7-79.8C105.8,63.5,155.8,42.8,205.1,44.5z"/>
					<path class="st4" d="M205.1,44.5c48.7,1.7,97.9,25.3,129.4,62.9c1.1,1.4,32,53.3,33.7,83.4c4.9,89.4-78.1,162.3-163.1,164.4
						C109.5,357.6,20.8,270.1,32.6,178c3.9-30.7,18.6-58,39.7-79.8C105.8,63.5,155.8,42.8,205.1,44.5z"/>
				</g>
				<g>
					<path class="st3" d="M72.2,98.2c29.8-9.4,74-19.7,128.1-19.5c53,0.2,96.3,10.2,125.8,19.5"/>
					<path class="st4" d="M72.2,98.2c29.8-9.4,74-19.7,128.1-19.5c53,0.2,96.3,10.2,125.8,19.5"/>
				</g>
				<g>
					<path class="st3" d="M72.2,295.3c29.3,10,74.7,21.5,130.8,21c52.3-0.5,94.8-11.3,123.1-21"/>
					<path class="st4" d="M72.2,295.3c29.3,10,74.7,21.5,130.8,21c52.3-0.5,94.8-11.3,123.1-21"/>
				</g>
				<g>
					<path class="st3" d="M32.5,210.9c34.2,9.3,75.3,17.5,122.2,20.8c88,6.3,161.8-6.9,213.6-20.8"/>
					<path class="st4" d="M32.5,210.9c34.2,9.3,75.3,17.5,122.2,20.8c88,6.3,161.8-6.9,213.6-20.8"/>
				</g>
				<g>
					<path class="st3" d="M39.3,150.2c41.6,2.3,84.8,3.8,129.5,4.3c65.8,0.7,128.4-1,187.7-4.3"/>
					<path class="st4" d="M39.3,150.2c41.6,2.3,84.8,3.8,129.5,4.3c65.8,0.7,128.4-1,187.7-4.3"/>
				</g>
			</g>
		</g>
	</g>
</g>
<g id="Warstwa_3">
	
		<image style="overflow:visible;opacity:0.1;enable-background:new    ;" width="1488" height="1438" xlink:href="ACCB0E57.png"  transform="matrix(0.2392 0 0 0.2392 29.0322 34.8576)">
	</image>
	<g>
		<g class="st5">
			<g class="st5">
				<g>
					<defs>
						<path id="SVGID_1_" d="M128.9,160.4c-0.4,0.1-1,0-1.4,0c-7.9,0-15.7,0-23.6,0c4.4-1.4,8.7-2.2,12.7-2.2h25
							C137.6,158.2,133.3,159,128.9,160.4z"/>
					</defs>
					<clipPath id="SVGID_2_">
						<use xlink:href="#SVGID_1_"  style="overflow:visible;"/>
					</clipPath>
					<g class="st6">
						<path class="st7" d="M116.6,158.2h25c-4,0-8.3,0.7-12.7,2.2h-25C108.3,159,112.6,158.2,116.6,158.2"/>
					</g>
				</g>
			</g>
			<g class="st5">
				<g>
					<defs>
						<path id="SVGID_3_" d="M116.5,176.2h25c-9.9,0-23.6,7.7-36.2,20.5c-14.3,14.6-29.1,38.3-27.7,61c1.8,28,28.7,47.5,44.7,56.7
							c23,13.2,51.7,21.8,78.3,23.8c2.8,0.2,5.6,0.3,8.3,0.4c1,0,2.1,0,3.1,0h-25c-1,0-2.1,0-3.1,0c-2.7-0.1-5.5-0.2-8.3-0.4
							c-26.6-2-55.3-10.6-78.3-23.8c-15.9-9.1-42.9-28.6-44.7-56.7c-1.4-22.7,13.4-46.4,27.7-61C92.9,183.9,106.6,176.2,116.5,176.2
							z"/>
					</defs>
					<clipPath id="SVGID_4_">
						<use xlink:href="#SVGID_3_"  style="overflow:visible;"/>
					</clipPath>
					<g class="st8">
						<path class="st7" d="M116.5,176.2h25c-3.4,0-7.2,0.9-11.2,2.6h-25C109.3,177.1,113.1,176.2,116.5,176.2"/>
						<path class="st9" d="M105.3,178.8h25c-3.5,1.4-7.1,3.4-10.8,6h-25C98.2,182.2,101.8,180.2,105.3,178.8"/>
						<path class="st10" d="M94.4,184.8h25c-4,2.7-8.1,6.1-12.1,9.9h-25C86.4,190.8,90.4,187.5,94.4,184.8"/>
						<path class="st11" d="M82.4,194.7h25c-0.7,0.7-1.4,1.3-2.1,2c-3.3,3.4-6.6,7.2-9.8,11.4h-25c3.1-4.2,6.5-8,9.8-11.4
							C81,196,81.7,195.4,82.4,194.7"/>
						<path class="st12" d="M70.6,208.1h25c-3.5,4.7-6.8,9.9-9.6,15.4H61C63.8,218,67.1,212.8,70.6,208.1"/>
						<path class="st13" d="M61,223.5h25c-2.9,5.6-5.2,11.5-6.7,17.5h-25C55.8,234.9,58.1,229.1,61,223.5"/>
						<path class="st14" d="M54.3,240.9h25c-1.4,5.5-2,11.2-1.6,16.7c0.1,0.9,0.1,1.8,0.2,2.6h-25c-0.1-0.9-0.2-1.7-0.2-2.6
							C52.3,252.1,53,246.5,54.3,240.9"/>
						<path class="st13" d="M52.9,260.3h25c0.4,3.8,1.3,7.4,2.6,10.8h-25C54.3,267.6,53.4,264,52.9,260.3"/>
						<path class="st12" d="M55.5,271.1h25c1.1,2.9,2.3,5.6,3.8,8.2h-25C57.8,276.7,56.6,273.9,55.5,271.1"/>
						<path class="st11" d="M59.3,279.3h25c1.7,3,3.7,5.9,5.8,8.6h-25C63,285.2,61,282.3,59.3,279.3"/>
						<path class="st10" d="M65.2,287.9h25c3,3.8,6.4,7.3,9.9,10.5H75C71.5,295.2,68.2,291.7,65.2,287.9"/>
						<path class="st9" d="M75,298.3h25c6.8,6.2,14.1,11.1,20.1,14.7h-25C89.1,309.4,81.8,304.5,75,298.3"/>
						<path class="st7" d="M95.1,313h25c0.8,0.5,1.5,0.9,2.2,1.3c23,13.2,51.7,21.8,78.3,23.8c2.8,0.2,5.6,0.3,8.3,0.4
							c1,0,2.1,0,3.1,0h-25c-1,0-2.1,0-3.1,0c-2.7-0.1-5.5-0.2-8.3-0.4c-26.6-2-55.3-10.6-78.3-23.8C96.6,313.9,95.9,313.5,95.1,313
							"/>
					</g>
				</g>
			</g>
			<g class="st5">
				<g>
					<defs>
						<path id="SVGID_5_" d="M143.6,176.4c0.5,0.1,1,0.1,1.5,0.3c-0.9,0-2,0-2.9,0c-0.9,0-2.2,0-3.1,0c-1,0-2.2,0-3.2,0
							c-1,0-2.3,0-3.3,0c-1,0-2.3,0-3.3,0c-1,0-2.2,0-3.2,0c-0.9,0-2.2,0-3.1,0c-0.9,0-2,0-2.9,0c-0.5-0.1-1-0.2-1.5-0.3
							C126.1,176.4,136.1,176.4,143.6,176.4z"/>
					</defs>
					<clipPath id="SVGID_6_">
						<use xlink:href="#SVGID_5_"  style="overflow:visible;"/>
					</clipPath>
					<g class="st15">
						<path class="st7" d="M118.6,176.4h25c0.5,0.1,1,0.1,1.5,0.3c1.7,0.4,3.7,1.2,6.3,2.3c4.7,1.9,11.1,4.5,21.5,7.1h-25
							c-10.4-2.6-16.8-5.1-21.5-7.1c-2.6-1-4.6-1.9-6.3-2.3C119.6,176.5,119.1,176.4,118.6,176.4"/>
					</g>
				</g>
			</g>
			<g class="st5">
				<g>
					<defs>
						<path id="SVGID_7_" d="M145.1,176.6L145.1,176.6c-0.9,0-2,0-2.9,0c-0.9,0-2.2,0-3.1,0c-1,0-2.2,0-3.2,0c-1,0-2.3,0-3.3,0
							c-1,0-2.3,0-3.3,0c-1,0-2.2,0-3.2,0c-0.9,0-2.2,0-3.1,0c-0.9,0-2,0-2.9,0l0,0c0.9,0,2,0,2.9,0c0.9,0,2.2,0,3.1,0
							c1,0,2.3,0,3.2,0c1,0,2.3,0,3.3,0c1,0,2.3,0,3.3,0c1,0,2.2,0,3.2,0c0.9,0,2.2,0,3.1,0C143.1,176.6,144.2,176.6,145.1,176.6z"
							/>
					</defs>
					<clipPath id="SVGID_8_">
						<use xlink:href="#SVGID_7_"  style="overflow:visible;"/>
					</clipPath>
					<g class="st16">
						<path class="st7" d="M118.6,176.4h25c0.5,0.1,1,0.1,1.5,0.3c1.7,0.4,3.7,1.2,6.3,2.3c4.7,1.9,11.1,4.5,21.5,7.1h-25
							c-10.4-2.6-16.8-5.1-21.5-7.1c-2.6-1-4.6-1.9-6.3-2.3C119.6,176.5,119.1,176.4,118.6,176.4"/>
					</g>
				</g>
			</g>
			<g class="st5">
				<g>
					<defs>
						<path id="SVGID_9_" d="M206.8,172.8C206.8,172.8,206.8,172.8,206.8,172.8c-0.9,0-2,0-2.9,0c-0.9,0-2.2,0-3.1,0
							c-1,0-2.2,0-3.2,0c-1,0-2.3,0-3.3,0c-1,0-2.3,0-3.3,0c-1,0-2.2,0-3.2,0c-0.9,0-2.2,0-3.1,0c-0.9,0-2,0-2.9,0c0,0,0,0,0,0
							C189.3,172.8,199.3,172.8,206.8,172.8z"/>
					</defs>
					<clipPath id="SVGID_10_">
						<use xlink:href="#SVGID_9_"  style="overflow:visible;"/>
					</clipPath>
					<g class="st17">
						<path class="st7" d="M181.8,172.8h25c0.8,0,1.7,0,2.7,0h-25C183.5,172.8,182.6,172.8,181.8,172.8"/>
					</g>
				</g>
			</g>
			<g class="st5">
				<g>
					<defs>
						<path id="SVGID_11_" d="M206.8,172.8C206.8,172.8,206.8,172.8,206.8,172.8c-0.1,0-0.2,0-0.2,0s-0.1,0-0.1,0s-0.1,0-0.1,0
							s-0.1,0-0.1,0s-0.1,0-0.1,0s-0.1,0-0.1,0c0,0-0.1,0-0.1,0c-0.9,0-2,0-2.8,0c-0.9,0-2.1,0-3,0c-0.9,0-2.2,0-3.1,0
							c-0.9,0-2.2,0-3.2,0s-2.2,0-3.2,0c-0.9,0-2.2,0-3.1,0c-0.9,0-2.1,0-3,0c-0.9,0-2,0-2.8,0l0,0c0.9,0,2,0,2.9,0
							c0.9,0,2.2,0,3.1,0c1,0,2.2,0,3.2,0c1,0,2.3,0,3.3,0c1,0,2.3,0,3.3,0c1,0,2.2,0,3.2,0c0.9,0,2.2,0,3.1,0
							C204.8,172.8,205.9,172.8,206.8,172.8C206.8,172.8,206.8,172.8,206.8,172.8z"/>
					</defs>
					<clipPath id="SVGID_12_">
						<use xlink:href="#SVGID_11_"  style="overflow:visible;"/>
					</clipPath>
					<g class="st18">
						<path class="st7" d="M181.8,172.8h25c0.8,0,1.7,0,2.7,0h-25C183.5,172.8,182.6,172.8,181.8,172.8"/>
					</g>
				</g>
			</g>
			<g class="st5">
				<g>
					<defs>
						<path id="SVGID_13_" d="M116.6,158.2h25c2.3,0,4.4,0.2,6.5,0.7c0.6,0.1,1.3,0.3,1.9,0.5c2.1,0.6,4.2,1.5,6.5,2.4
							c4.5,1.8,10.2,4.1,19.6,6.4c0,0,1.3,0.3,3.4,0.8c3.4,0.7,8.9,1.8,15.4,2.6c3.7,0.5,7.7,0.9,11.7,1.1c2.3,0.1,4.5,0.2,6.5,0.2
							h-25c-2.1,0-4.2-0.1-6.5-0.2c-4-0.2-8-0.6-11.7-1.1c-6.5-0.8-12.1-1.9-15.4-2.6c-2.1-0.4-3.3-0.7-3.4-0.8
							c-9.4-2.3-15-4.6-19.6-6.4c-2.3-0.9-4.4-1.8-6.5-2.4c-0.6-0.2-1.3-0.4-1.9-0.5C121,158.5,118.8,158.2,116.6,158.2z"/>
					</defs>
					<clipPath id="SVGID_14_">
						<use xlink:href="#SVGID_13_"  style="overflow:visible;"/>
					</clipPath>
					<g class="st19">
						<path class="st7" d="M116.6,158.2h25c2.3,0,4.4,0.2,6.5,0.7c0.6,0.1,1.3,0.3,1.9,0.5c2.1,0.6,4.2,1.5,6.5,2.4
							c4.5,1.8,10.2,4.1,19.6,6.4c0,0,1.3,0.3,3.4,0.8c3.4,0.7,8.9,1.8,15.4,2.6c3.7,0.5,7.7,0.9,11.7,1.1c2.3,0.1,4.5,0.2,6.5,0.2
							h-25c-2.1,0-4.2-0.1-6.5-0.2c-4-0.2-8-0.6-11.7-1.1c-6.5-0.8-12.1-1.9-15.4-2.6c-2.1-0.4-3.3-0.7-3.4-0.8
							c-9.4-2.3-15-4.6-19.6-6.4c-2.3-0.9-4.4-1.8-6.5-2.4c-0.6-0.2-1.3-0.4-1.9-0.5C121,158.5,118.8,158.2,116.6,158.2"/>
					</g>
				</g>
			</g>
			<g class="st5">
				<g>
					<defs>
						<path id="SVGID_15_" d="M150.1,159.5c-8.3,0-16.6,0-24.9,0h-0.1c-4.9-4.6-20.7-21.1-19.5-42.3c0.8-15.7,10.5-27.8,20-36.1
							c0.9,0,2,0,2.9,0c0.9,0,2.2,0,3.1,0c1,0,2.2,0,3.2,0c1,0,2.3,0,3.3,0c1,0,2.3,0,3.3,0c1,0,2.2,0,3.2,0c0.9,0,2.2,0,3.1,0
							c0.9,0,2,0,2.9,0c-9.5,8.2-19.1,20.4-20,36.1C129.4,138.4,145.1,154.9,150.1,159.5z"/>
					</defs>
					<clipPath id="SVGID_16_">
						<use xlink:href="#SVGID_15_"  style="overflow:visible;"/>
					</clipPath>
					<g class="st20">
						<path class="st10" d="M133.8,74.8h25c-3.5,2.4-7.6,5.5-11.5,9.3h-25C126.2,80.3,130.3,77.2,133.8,74.8"/>
						<path class="st11" d="M122.3,84h25c-2.5,2.4-5,5.1-7.2,8.1h-25C117.4,89.2,119.8,86.4,122.3,84"/>
						<path class="st12" d="M115.2,92.1h25c-1.8,2.4-3.4,5-4.9,7.7h-25C111.7,97.1,113.4,94.5,115.2,92.1"/>
						<path class="st13" d="M110.3,99.8h25c-1.6,3.1-2.8,6.3-3.7,9.8h-25C107.5,106.2,108.8,102.9,110.3,99.8"/>
						<path class="st14" d="M106.6,109.6h25c-0.6,2.4-1,4.9-1.1,7.5c-0.1,2.5,0,4.9,0.2,7.3h-25c-0.3-2.3-0.4-4.8-0.2-7.3
							C105.7,114.6,106.1,112.1,106.6,109.6"/>
						<path class="st13" d="M105.8,124.4h25c0.4,3.6,1.4,7.1,2.5,10.4h-25C107.1,131.6,106.2,128.1,105.8,124.4"/>
						<path class="st12" d="M108.3,134.8h25c1.1,3,2.4,5.8,3.9,8.4h-25C110.8,140.6,109.4,137.8,108.3,134.8"/>
						<path class="st11" d="M112.2,143.2h25c1.9,3.3,3.9,6.2,5.9,8.7h-25C116.1,149.4,114.1,146.5,112.2,143.2"/>
						<path class="st10" d="M118.1,151.9h25c2.8,3.6,5.4,6.2,7,7.6h-25C123.5,158,120.9,155.4,118.1,151.9"/>
					</g>
				</g>
			</g>
			<g class="st5">
				<g>
					<defs>
						<path id="SVGID_17_" d="M145.1,176.6c1.7,0.4,3.7,1.2,6.3,2.3c-0.9,0-2.1,0-2.9,0c-0.9,0-2.2,0-3.1,0c-1,0-2.2,0-3.2,0
							c-1,0-2.3,0-3.3,0c-1,0-2.3,0-3.3,0c-1,0-2.2,0-3.2,0c-0.9,0-2.2,0-3.1,0c-0.9,0-2,0-2.9,0c-2.6-1-4.6-1.9-6.3-2.3
							c0.9,0,2,0,2.9,0c0.9,0,2.2,0,3.1,0c1,0,2.2,0,3.2,0c1,0,2.3,0,3.3,0c1,0,2.3,0,3.3,0c1,0,2.2,0,3.2,0c0.9,0,2.2,0,3.1,0
							C143.1,176.6,144.2,176.6,145.1,176.6z"/>
					</defs>
					<clipPath id="SVGID_18_">
						<use xlink:href="#SVGID_17_"  style="overflow:visible;"/>
					</clipPath>
					<g class="st21">
						<path class="st7" d="M118.6,176.4h25c0.5,0.1,1,0.1,1.5,0.3c1.7,0.4,3.7,1.2,6.3,2.3c4.7,1.9,11.1,4.5,21.5,7.1h-25
							c-10.4-2.6-16.8-5.1-21.5-7.1c-2.6-1-4.6-1.9-6.3-2.3C119.6,176.5,119.1,176.4,118.6,176.4"/>
					</g>
				</g>
			</g>
			<g class="st5">
				<g>
					<defs>
						<path id="SVGID_19_" d="M172.9,185.9c-8.3,0-16.7,0-25,0c-10.4-2.6-16.8-5.1-21.5-7.1c0.9,0,2,0,2.9,0c0.9,0,2.2,0,3.1,0
							c1,0,2.2,0,3.2,0c1,0,2.3,0,3.3,0c1,0,2.3,0,3.3,0c1,0,2.2,0,3.2,0c0.9,0,2.2,0,3.1,0c0.9,0,2.1,0,2.9,0
							C156.1,180.8,162.5,183.4,172.9,185.9z"/>
					</defs>
					<clipPath id="SVGID_20_">
						<use xlink:href="#SVGID_19_"  style="overflow:visible;"/>
					</clipPath>
					<g class="st22">
						<path class="st7" d="M118.6,176.4h25c0.5,0.1,1,0.1,1.5,0.3c1.7,0.4,3.7,1.2,6.3,2.3c4.7,1.9,11.1,4.5,21.5,7.1h-25
							c-10.4-2.6-16.8-5.1-21.5-7.1c-2.6-1-4.6-1.9-6.3-2.3C119.6,176.5,119.1,176.4,118.6,176.4"/>
					</g>
				</g>
			</g>
			<g class="st5">
				<g>
					<defs>
						<path id="SVGID_21_" d="M153.5,189.5h25c4.8,0.5,9.9,0.8,15.6,0.9h-25C163.4,190.3,158.3,190,153.5,189.5z"/>
					</defs>
					<clipPath id="SVGID_22_">
						<use xlink:href="#SVGID_21_"  style="overflow:visible;"/>
					</clipPath>
					<g class="st23">
						<path class="st7" d="M153.5,189.5h25c4.8,0.5,9.9,0.8,15.6,0.9h-25C163.4,190.3,158.3,190,153.5,189.5"/>
					</g>
				</g>
			</g>
			<g class="st5">
				<g>
					<defs>
						<path id="SVGID_23_" d="M165,70.9c-3.6,2.1-9,5.5-14.5,10.2c-0.9,0-2,0-2.9,0c-0.9,0-2.2,0-3.1,0c-1,0-2.2,0-3.2,0
							c-1,0-2.3,0-3.3,0c-1,0-2.3,0-3.3,0c-1,0-2.2,0-3.2,0c-0.9,0-2.2,0-3.1,0c-0.9,0-2,0-2.9,0c5.4-4.7,10.8-8.2,14.5-10.2
							c11.8-6.8,25-9.8,38.3-9.9c0.5,0,0.9,0,1.4,0h25c-0.5,0-0.9,0-1.4,0C190,61.1,176.8,64.1,165,70.9z"/>
					</defs>
					<clipPath id="SVGID_24_">
						<use xlink:href="#SVGID_23_"  style="overflow:visible;"/>
					</clipPath>
					<g class="st24">
						<path class="st7" d="M179.7,60.9h25c-0.5,0-0.9,0-1.4,0c-10.3,0.2-20.5,2-30.1,5.9h-25c9.6-4,19.8-5.8,30.1-5.9
							C178.8,60.9,179.2,60.9,179.7,60.9"/>
						<path class="st9" d="M148.2,66.9h25c-2.8,1.2-5.5,2.5-8.2,4c-1.7,1-3.9,2.3-6.2,3.9h-25c2.3-1.6,4.5-2.9,6.2-3.9
							C142.6,69.4,145.4,68,148.2,66.9"/>
						<path class="st10" d="M133.8,74.8h25c-3.5,2.4-7.6,5.5-11.5,9.3h-25C126.2,80.3,130.3,77.2,133.8,74.8"/>
					</g>
				</g>
			</g>
			<g class="st5">
				<g>
					<defs>
						<path id="SVGID_25_" d="M217.6,338.5c-8.3,0-16.7,0-25,0c-11.5-31.4-18.9-64.3-22-97.9c-1.6-17.3-2.1-34.1-1.6-50.1h25
							c-0.4,16,0,32.8,1.6,50.1C198.7,274.1,206.1,307,217.6,338.5z"/>
					</defs>
					<clipPath id="SVGID_26_">
						<use xlink:href="#SVGID_25_"  style="overflow:visible;"/>
					</clipPath>
					<g class="st25">
						<path class="st14" d="M169,190.5h25c-0.4,16,0,32.8,1.6,50.1c0.4,4.2,0.8,8.3,1.4,12.4h-25c-0.5-4.1-1-8.3-1.4-12.4
							C169,223.3,168.6,206.5,169,190.5"/>
						<path class="st13" d="M172,253h25c3.6,29.2,10.6,57.9,20.6,85.4h-25C182.5,310.9,175.6,282.3,172,253"/>
					</g>
				</g>
			</g>
			<g class="st5">
				<g>
					<defs>
						<path id="SVGID_27_" d="M172.9,185.9c0.6,0.2,16.1,3.9,33,4.8c-0.9,0-2,0-2.9,0c-0.9,0-2.2,0-3.1,0c-1,0-2.2,0-3.2,0
							c-1,0-2.3,0-3.3,0c-1,0-2.3,0-3.3,0c-1,0-2.2,0-3.2,0c-0.9,0-2.2,0-3.1,0c-0.9,0-2,0-2.9,0c-16.9-0.9-32.4-4.7-33-4.8
							C155.4,185.9,165.4,185.9,172.9,185.9z"/>
					</defs>
					<clipPath id="SVGID_28_">
						<use xlink:href="#SVGID_27_"  style="overflow:visible;"/>
					</clipPath>
					<g class="st26">
						<path class="st7" d="M147.9,185.9h25c0.6,0.2,16.2,4,33.2,4.8c0.1,0,0.1,0,0.2,0h-25c-0.1,0-0.1,0-0.2,0
							C164.1,189.9,148.5,186.1,147.9,185.9"/>
					</g>
				</g>
			</g>
			<g class="st5">
				<g>
					<defs>
						<path id="SVGID_29_" d="M206.1,190.8c0.1,0,0.1,0,0.2,0h-25c-0.1,0-0.1,0-0.2,0c-0.1,0-0.1,0-0.2,0c0.9,0,2,0,2.9,0
							c0.9,0,2.2,0,3.1,0c1,0,2.2,0,3.2,0c1,0,2.3,0,3.3,0c1,0,2.3,0,3.3,0c1,0,2.2,0,3.2,0c0.9,0,2.2,0,3.1,0c0.9,0,2,0,2.9,0
							C206,190.8,206,190.8,206.1,190.8z"/>
					</defs>
					<clipPath id="SVGID_30_">
						<use xlink:href="#SVGID_29_"  style="overflow:visible;"/>
					</clipPath>
					<g class="st27">
						<path class="st7" d="M147.9,185.9h25c0.6,0.2,16.2,4,33.2,4.8c0.1,0,0.1,0,0.2,0h-25c-0.1,0-0.1,0-0.2,0
							C164.1,189.9,148.5,186.1,147.9,185.9"/>
					</g>
				</g>
			</g>
			<g>
				<path class="st28" d="M147.9,185.9c0.6,0.2,16.2,4,33.2,4.8c0.1,0,0.1,0,0.2,0c-4.3-0.1-8.4-0.2-12.2-0.3
					c-5.6-0.2-10.8-0.4-15.6-0.9c-13.6-1.4-24.4-4.7-34.9-13.2c0.5,0.1,1,0.1,1.5,0.3c1.7,0.4,3.7,1.2,6.3,2.3
					C131.1,180.8,137.5,183.4,147.9,185.9z"/>
			</g>
			<g class="st5">
				<g>
					<defs>
						<path id="SVGID_31_" d="M206.8,172.8c0.8,0,1.7,0,2.7,0h-25c-0.9,0-1.9,0-2.7,0c0.9,0,2,0,2.8,0c0.9,0,2.1,0,3,0
							c0.9,0,2.2,0,3.1,0c0.9,0,2.2,0,3.2,0s2.2,0,3.2,0c0.9,0,2.2,0,3.1,0c0.9,0,2.1,0,3,0c0.9,0,2,0,2.8,0c0,0,0.1,0,0.1,0
							s0.1,0,0.1,0c0,0,0.1,0,0.1,0s0.1,0,0.1,0s0.1,0,0.1,0s0.1,0,0.1,0S206.7,172.8,206.8,172.8
							C206.8,172.8,206.8,172.8,206.8,172.8z"/>
					</defs>
					<clipPath id="SVGID_32_">
						<use xlink:href="#SVGID_31_"  style="overflow:visible;"/>
					</clipPath>
					<g class="st29">
						<path class="st7" d="M181.8,172.8h25c0.8,0,1.7,0,2.7,0h-25C183.5,172.8,182.6,172.8,181.8,172.8"/>
					</g>
				</g>
			</g>
			<g class="st5">
				<g>
					<defs>
						<path id="SVGID_33_" d="M212.1,338.6C212.1,338.6,212.1,338.6,212.1,338.6h-25c0,0,0,0,0,0c0.9,0,2,0,2.9,0c0.9,0,2.2,0,3.1,0
							c1,0,2.2,0,3.2,0c1,0,2.3,0,3.3,0c1,0,2.3,0,3.3,0c1,0,2.2,0,3.2,0c0.9,0,2.2,0,3.1,0C210,338.6,211.2,338.6,212.1,338.6z"/>
					</defs>
					<clipPath id="SVGID_34_">
						<use xlink:href="#SVGID_33_"  style="overflow:visible;"/>
					</clipPath>
					<g class="st30">
						<path class="st7" d="M192.6,338.5h25c-1.9,0.1-3.7,0.1-5.5,0.1h-25C188.9,338.6,190.8,338.5,192.6,338.5"/>
					</g>
				</g>
			</g>
			<g class="st5">
				<g>
					<defs>
						<path id="SVGID_35_" d="M213.2,172.9C213.2,172.9,213.2,172.9,213.2,172.9h-25c0,0,0,0,0,0c0.9,0,2,0,2.9,0c0.9,0,2.2,0,3.1,0
							c1,0,2.2,0,3.2,0c1,0,2.3,0,3.3,0c1,0,2.3,0,3.3,0c1,0,2.2,0,3.2,0c0.9,0,2.2,0,3.1,0C211.2,172.9,212.3,172.9,213.2,172.9z"
							/>
					</defs>
					<clipPath id="SVGID_36_">
						<use xlink:href="#SVGID_35_"  style="overflow:visible;"/>
					</clipPath>
					<g class="st31">
						<path class="st7" d="M254.8,161.7h25c-9.2,0-17.8,2.4-26.8,4.8c-11.1,3-23.4,6.4-39.8,6.4h-25c16.4,0,28.8-3.4,39.8-6.4
							C237,164.1,245.6,161.7,254.8,161.7"/>
					</g>
				</g>
			</g>
			<g class="st5">
				<g>
					<defs>
						<path id="SVGID_37_" d="M217.6,338.5c-1.9,0.1-3.7,0.1-5.5,0.1c-0.9,0-2,0-2.9,0c-0.9,0-2.2,0-3.1,0c-1,0-2.2,0-3.2,0
							c-1,0-2.3,0-3.3,0c-1,0-2.3,0-3.3,0c-1,0-2.2,0-3.2,0c-0.9,0-2.2,0-3.1,0c-0.9,0-2,0-2.9,0c1.8,0,3.7,0,5.5-0.1
							C200.9,338.5,209.3,338.5,217.6,338.5z"/>
					</defs>
					<clipPath id="SVGID_38_">
						<use xlink:href="#SVGID_37_"  style="overflow:visible;"/>
					</clipPath>
					<g class="st32">
						<path class="st7" d="M192.6,338.5h25c-1.9,0.1-3.7,0.1-5.5,0.1h-25C188.9,338.6,190.8,338.5,192.6,338.5"/>
					</g>
				</g>
			</g>
			<g>
				<path class="st28" d="M169,190.5c-0.4,16,0,32.8,1.6,50.1c3.1,33.5,10.5,66.4,22,97.9c-1.9,0.1-3.7,0.1-5.5,0.1
					c-1,0-2.1,0-3.1,0c-2.7-0.1-5.5-0.2-8.3-0.4c-10.6-30.8-17.5-62.9-20.5-95.6c-1.7-18.3-2.1-36-1.7-53
					C158.3,190,163.4,190.3,169,190.5z"/>
			</g>
			<g class="st5">
				<g>
					<defs>
						<path id="SVGID_39_" d="M194.5,63.8h25c-10.9,24.4-21.2,62.3-24.5,107.9h-25C173.2,126.1,183.5,88.2,194.5,63.8z"/>
					</defs>
					<clipPath id="SVGID_40_">
						<use xlink:href="#SVGID_39_"  style="overflow:visible;"/>
					</clipPath>
					<g class="st33">
						<path class="st13" d="M194.5,63.8h25c-5.3,11.7-10.4,26.6-14.6,44h-25C184.1,90.4,189.2,75.5,194.5,63.8"/>
						<path class="st14" d="M179.8,107.8h25c-4.6,18.7-8.2,40.3-9.9,63.9h-25C171.6,148.1,175.2,126.5,179.8,107.8"/>
					</g>
				</g>
			</g>
			<g>
				<polygon class="st34" points="195.2,62.1 220.2,62.1 219.5,63.8 194.5,63.8 				"/>
			</g>
			<g class="st5">
				<g>
					<defs>
						<path id="SVGID_41_" d="M179.7,60.9h25c5.2,0,10.4,0.4,15.5,1.2h-25C190.1,61.3,184.9,60.9,179.7,60.9z"/>
					</defs>
					<clipPath id="SVGID_42_">
						<use xlink:href="#SVGID_41_"  style="overflow:visible;"/>
					</clipPath>
					<g class="st35">
						<path class="st7" d="M179.7,60.9h25c5.2,0,10.4,0.4,15.5,1.2h-25C190.1,61.3,184.9,60.9,179.7,60.9"/>
					</g>
				</g>
			</g>
			<g>
				<path class="st28" d="M179.7,60.9c5.2,0,10.4,0.4,15.5,1.2l-0.8,1.7c-10.9,24.4-21.2,62.3-24.5,107.9
					c-6.5-0.8-12.1-1.9-15.4-2.6c3.4-44.6,13.1-82.3,23.8-108.1C178.8,60.9,179.2,60.9,179.7,60.9z"/>
			</g>
			<g class="st5">
				<g>
					<defs>
						<path id="SVGID_43_" d="M253,166.5c-11.1,3-23.4,6.4-39.8,6.4c-0.9,0-2,0-2.9,0c-0.9,0-2.2,0-3.1,0c-1,0-2.2,0-3.2,0
							c-1,0-2.3,0-3.3,0c-1,0-2.3,0-3.3,0c-1,0-2.2,0-3.2,0c-0.9,0-2.2,0-3.1,0c-0.9,0-2,0-2.9,0c16.4,0,28.8-3.4,39.8-6.4
							c0.9,0,2,0,2.9,0c0.9,0,2.2,0,3.1,0c1,0,2.2,0,3.2,0c1,0,2.3,0,3.3,0c1,0,2.3,0,3.3,0c1,0,2.2,0,3.2,0c0.9,0,2.2,0,3.1,0
							C251,166.5,252.1,166.5,253,166.5z"/>
					</defs>
					<clipPath id="SVGID_44_">
						<use xlink:href="#SVGID_43_"  style="overflow:visible;"/>
					</clipPath>
					<g class="st36">
						<path class="st7" d="M254.8,161.7h25c-9.2,0-17.8,2.4-26.8,4.8c-11.1,3-23.4,6.4-39.8,6.4h-25c16.4,0,28.8-3.4,39.8-6.4
							C237,164.1,245.6,161.7,254.8,161.7"/>
					</g>
				</g>
			</g>
			<g class="st5">
				<g>
					<defs>
						<path id="SVGID_45_" d="M254.7,179.7h25c-7.3,0-14.5,2-23.1,4.4c-11.4,3.1-25.2,6.9-43.5,6.9h-25c18.3,0,32.1-3.8,43.5-6.9
							C240.3,181.7,247.5,179.7,254.7,179.7z"/>
					</defs>
					<clipPath id="SVGID_46_">
						<use xlink:href="#SVGID_45_"  style="overflow:visible;"/>
					</clipPath>
					<g class="st37">
						<path class="st7" d="M254.7,179.7h25c-7.3,0-14.5,2-23.1,4.4c-11.4,3.1-25.2,6.9-43.5,6.9h-25c18.3,0,32.1-3.8,43.5-6.9
							C240.3,181.7,247.5,179.7,254.7,179.7"/>
					</g>
				</g>
			</g>
			<g class="st5">
				<g>
					<defs>
						<path id="SVGID_47_" d="M279.8,161.7c-9.2,0-17.8,2.4-26.8,4.8c-0.9,0-2,0-2.9,0c-0.9,0-2.2,0-3.1,0c-1,0-2.2,0-3.2,0
							c-1,0-2.3,0-3.3,0c-1,0-2.3,0-3.3,0c-1,0-2.2,0-3.2,0c-0.9,0-2.2,0-3.1,0c-0.9,0-2,0-2.9,0c9-2.5,17.6-4.8,26.8-4.8
							C262.3,161.7,272.3,161.7,279.8,161.7z"/>
					</defs>
					<clipPath id="SVGID_48_">
						<use xlink:href="#SVGID_47_"  style="overflow:visible;"/>
					</clipPath>
					<g class="st38">
						<path class="st7" d="M254.8,161.7h25c-9.2,0-17.8,2.4-26.8,4.8c-11.1,3-23.4,6.4-39.8,6.4h-25c16.4,0,28.8-3.4,39.8-6.4
							C237,164.1,245.6,161.7,254.8,161.7"/>
					</g>
				</g>
			</g>
			<g class="st5">
				<g>
					<defs>
						<path id="SVGID_49_" d="M179.5,43h25c25.6,0,51.3,8.8,70.5,21.2c21.8,14,35,32.1,36.5,49.6h-25c-1.4-17.5-14.7-35.6-36.4-49.6
							C230.8,51.9,205.1,43,179.5,43z"/>
					</defs>
					<clipPath id="SVGID_50_">
						<use xlink:href="#SVGID_49_"  style="overflow:visible;"/>
					</clipPath>
					<g class="st39">
						<path class="st7" d="M179.5,43h25c24.1,0,48.2,7.8,66.9,19h-25C227.7,50.8,203.6,43,179.5,43"/>
						<path class="st9" d="M246.5,62.1h25c1.2,0.7,2.4,1.5,3.6,2.2c5.4,3.5,10.3,7.2,14.6,11.1h-25c-4.3-3.9-9.2-7.6-14.6-11.1
							C248.9,63.5,247.7,62.8,246.5,62.1"/>
						<path class="st10" d="M264.7,75.4h25c3.6,3.3,6.9,6.7,9.6,10.2h-25C271.5,82.1,268.3,78.7,264.7,75.4"/>
						<path class="st11" d="M274.3,85.7h25c2.2,2.8,4.2,5.7,5.9,8.6h-25C278.5,91.4,276.5,88.5,274.3,85.7"/>
						<path class="st12" d="M280.2,94.3h25c1.5,2.7,2.8,5.4,3.8,8.1h-25C282.9,99.7,281.7,97,280.2,94.3"/>
						<path class="st13" d="M283.9,102.4h25c1.2,3.3,2,6.6,2.4,9.9h-25C286,109,285.1,105.7,283.9,102.4"/>
						<path class="st14" d="M286.4,112.3h25c0.1,0.5,0.1,1.1,0.2,1.6h-25C286.5,113.4,286.4,112.8,286.4,112.3"/>
					</g>
				</g>
			</g>
			<g class="st5">
				<g>
					<defs>
						<path id="SVGID_51_" d="M286.5,113.9h25c1.4,17-7.9,35.8-19.9,49.1h-25C278.7,149.8,287.9,130.9,286.5,113.9z"/>
					</defs>
					<clipPath id="SVGID_52_">
						<use xlink:href="#SVGID_51_"  style="overflow:visible;"/>
					</clipPath>
					<g class="st40">
						<path class="st14" d="M286.5,113.9h25c0.4,5.1-0.1,10.3-1.4,15.5h-25C286.4,124.3,286.9,119,286.5,113.9"/>
						<path class="st13" d="M285.1,129.5h25c-1.3,5.2-3.3,10.3-5.8,15.2h-25C281.9,139.8,283.9,134.6,285.1,129.5"/>
						<path class="st12" d="M279.3,144.7h25c-2.2,4.3-4.8,8.4-7.7,12.3h-25C274.5,153.1,277.1,149,279.3,144.7"/>
						<path class="st11" d="M271.7,157h25c-1.6,2.1-3.3,4.2-5,6.1h-25C268.4,161.1,270.1,159.1,271.7,157"/>
					</g>
				</g>
			</g>
			<g>
				<path class="st28" d="M286.5,113.9c1.4,17-7.9,35.8-19.9,49.1c-1.3-0.3-2.6-0.6-4-0.8c-2.7-0.4-5.3-0.6-7.9-0.6
					c-9.2,0-17.8,2.4-26.8,4.8c-11.1,3-23.4,6.4-39.8,6.4c-2.1,0-4.2-0.1-6.4-0.2c0.8,0,1.7,0,2.7,0c14.4,0,28.8-2.1,42.7-6.4
					c9.8-3,14.3-4.4,19.4-7.9c14.1-9.8,25.5-29.8,24.5-42.9c-0.9-11.2-11.8-24.8-28.5-35.6c-13.3-8.6-30-15.3-47.3-17.9
					c-5.1-0.8-10.3-1.2-15.5-1.2c-0.5,0-0.9,0-1.4,0c-13.3,0.2-26.5,3.2-38.3,9.9c-9.9,5.7-33.1,21.6-34.5,46.3
					c-1.2,21.2,14.6,37.7,19.5,42.3c-0.6-0.2-1.3-0.4-1.9-0.5c-2.1-0.5-4.3-0.7-6.5-0.7c-4,0-8.3,0.7-12.7,2.2
					C96.4,150,89,134.7,90,116c1.8-34.1,30.8-54.2,43.1-61.3c14.4-8.2,30.4-11.7,46.5-11.7c25.6,0,51.3,8.8,70.5,21.3
					C271.8,78.3,285.1,96.4,286.5,113.9z"/>
			</g>
			<g class="st5">
				<g>
					<defs>
						<path id="SVGID_53_" d="M266.7,163.1h25c37.5,8.7,72.8,55.4,71.2,95.7c-1.1,26.7-20.1,52-53.6,71.4
							c-28.8,16.6-64.9,26.4-97.3,26.4h-25c32.4,0,68.5-9.8,97.3-26.4c33.5-19.4,52.5-44.7,53.6-71.4
							C339.5,218.5,304.1,171.7,266.7,163.1z"/>
					</defs>
					<clipPath id="SVGID_54_">
						<use xlink:href="#SVGID_53_"  style="overflow:visible;"/>
					</clipPath>
					<g class="st41">
						<path class="st7" d="M266.7,163.1h25c6.9,1.6,13.7,4.5,20.2,8.4h-25C280.4,167.5,273.5,164.7,266.7,163.1"/>
						<path class="st9" d="M286.9,171.4h25c5.4,3.2,10.5,7.1,15.4,11.5h-25C297.4,178.5,292.3,174.6,286.9,171.4"/>
						<path class="st10" d="M302.3,182.9h25c4.5,4.1,8.8,8.7,12.6,13.6h-25C311,191.6,306.8,187,302.3,182.9"/>
						<path class="st11" d="M314.9,196.5h25c3.7,4.7,7.1,9.8,10.1,15h-25C322,206.2,318.7,201.2,314.9,196.5"/>
						<path class="st12" d="M325,211.5h25c2.9,5.2,5.5,10.6,7.5,16.1h-25C330.5,222.1,328,216.7,325,211.5"/>
						<path class="st13" d="M332.5,227.6h25c2.4,6.5,4,13.1,4.9,19.7h-25C336.5,240.7,334.9,234.1,332.5,227.6"/>
						<path class="st14" d="M337.3,247.2h25c0.5,3.9,0.6,7.7,0.5,11.5c-0.2,4-0.7,8-1.7,12h-25c1-4,1.5-8,1.7-12
							C338,254.9,337.8,251.1,337.3,247.2"/>
						<path class="st13" d="M336.1,270.7h25c-1.2,5-3.1,9.9-5.5,14.6h-25C333.1,280.6,334.9,275.7,336.1,270.7"/>
						<path class="st12" d="M330.6,285.4h25c-2,4-4.5,7.9-7.3,11.7h-25C326.1,293.2,328.6,289.3,330.6,285.4"/>
						<path class="st11" d="M323.3,297.1h25c-3.1,4.2-6.7,8.2-10.8,12.2h-25C316.6,305.3,320.2,301.2,323.3,297.1"/>
						<path class="st10" d="M312.5,309.2h25c-5.2,5-11.1,9.8-17.7,14.3h-25C301.4,319,307.3,314.2,312.5,309.2"/>
						<path class="st9" d="M294.8,323.5h25c-3.4,2.3-6.9,4.5-10.6,6.6c-7,4.1-14.5,7.7-22.2,10.9h-25c7.7-3.2,15.2-6.9,22.2-10.9
							C287.9,328,291.5,325.8,294.8,323.5"/>
						<path class="st7" d="M262,341.1h25c-24,9.9-50.6,15.5-75.1,15.5h-25C211.4,356.6,238,351,262,341.1"/>
					</g>
				</g>
			</g>
			<g>
				<path class="st28" d="M266.7,163.1c37.5,8.7,72.8,55.4,71.2,95.7c-1.1,26.7-20.1,52-53.6,71.4c-28.8,16.6-64.9,26.4-97.3,26.4
					c-1.1,0-2.2,0-3.3,0c-31-0.6-65.9-10.4-93.3-26.1c-32.6-18.7-51.6-44.1-53.3-71.5c-1.8-29.2,15.8-58.3,32.9-75.7
					c11.2-11.4,23-19.2,33.9-22.8c4.4-1.4,8.7-2.2,12.7-2.2c2.3,0,4.4,0.2,6.5,0.7c0.7,0.1,1.3,0.3,1.9,0.5c2.1,0.6,4.2,1.5,6.5,2.4
					c4.5,1.8,10.2,4.1,19.6,6.4c0,0,1.3,0.3,3.4,0.8c3.4,0.7,8.9,1.8,15.4,2.6c3.7,0.5,7.7,0.9,11.7,1.1c2.3,0.1,4.5,0.2,6.5,0.2
					c16.4,0,28.8-3.4,39.8-6.4c9-2.5,17.6-4.8,26.8-4.8c2.6,0,5.2,0.2,7.9,0.6C264,162.5,265.4,162.8,266.7,163.1z M322.3,257.9
					c1.3-32.2-31-72.9-61.7-77.8c-2-0.3-3.9-0.4-5.9-0.4c-7.3,0-14.5,2-23.1,4.4c-11.4,3.1-25.2,6.9-43.5,6.9
					c-2.2,0-4.5-0.1-6.9-0.2c-17.1-0.9-32.7-4.7-33.4-4.9c-10.4-2.6-16.8-5.1-21.5-7.1c-2.6-1-4.6-1.9-6.3-2.3
					c-0.5-0.1-1-0.2-1.5-0.3c-0.7-0.1-1.4-0.1-2.1-0.1c-9.9,0-23.6,7.7-36.2,20.5c-14.3,14.6-29.1,38.3-27.7,61
					c1.8,28,28.7,47.5,44.7,56.7c23,13.2,51.7,21.8,78.3,23.8c2.8,0.2,5.6,0.3,8.3,0.4c1,0,2.1,0,3.1,0c1.8,0,3.7,0,5.5-0.1
					c28.5-1,59.6-9.9,84.6-24.4C305.1,298,321.5,277.5,322.3,257.9"/>
			</g>
		</g>
	</g>
</g>
<g id="Warstwa_2_1_" class="st42">
</g>
</svg>
